<?xml version="1.0" encoding="UTF-8" standalone="no"?>
<svg
   xmlns:dc="http://purl.org/dc/elements/1.1/"
   xmlns:cc="http://creativecommons.org/ns#"
   xmlns:rdf="http://www.w3.org/1999/02/22-rdf-syntax-ns#"
   xmlns:svg="http://www.w3.org/2000/svg"
   xmlns="http://www.w3.org/2000/svg"
   xmlns:sodipodi="http://sodipodi.sourceforge.net/DTD/sodipodi-0.dtd"
   xmlns:inkscape="http://www.inkscape.org/namespaces/inkscape"
   sodipodi:docname="logo.svg"
   inkscape:version="1.1-dev (84b32f2, 2020-03-06)"
   id="svg8"
   version="1.1"
   viewBox="0 0 52.916665 26.458334"
   height="100"
   width="200">
  <defs
     id="defs2" />
  <sodipodi:namedview
     inkscape:window-maximized="0"
     inkscape:window-y="0"
     inkscape:window-x="0"
     inkscape:window-height="728"
     inkscape:window-width="1366"
     units="px"
     showgrid="false"
     inkscape:current-layer="layer1"
     inkscape:document-units="px"
     inkscape:cy="52.140616"
     inkscape:cx="98.557539"
     inkscape:zoom="3.959798"
     inkscape:pageshadow="2"
     inkscape:pageopacity="0.0"
     borderopacity="1.0"
     bordercolor="#666666"
     pagecolor="#ffffff"
     id="base" />
  <metadata
     id="metadata5">
    <rdf:RDF>
      <cc:Work
         rdf:about="">
        <dc:format>image/svg+xml</dc:format>
        <dc:type
           rdf:resource="http://purl.org/dc/dcmitype/StillImage" />
        <dc:title></dc:title>
      </cc:Work>
    </rdf:RDF>
  </metadata>
  <g
     id="layer1"
     inkscape:groupmode="layer"
     inkscape:label="Camada 1">
    <path
       inkscape:connector-curvature="0"
       d="M 5.1449383,4.6103991 H 48.108512 V 15.768902 H 5.1449383 Z"
       style="fill:#212529;fill-opacity:1;stroke:none;stroke-width:0.18472"
       id="rect10" />
    <g
       style="font-style:normal;font-weight:normal;font-size:12.8699px;line-height:1.25;font-family:sans-serif;fill:#000000;fill-opacity:1;stroke:none;stroke-width:0.241311"
       id="text855"
       transform="matrix(0.91204386,0,0,1.0964385,-0.13363981,-3.3408691)"
       aria-label="REACT">
      <path
         inkscape:connector-curvature="0"
         id="path926"
         style="font-style:normal;font-variant:normal;font-weight:normal;font-stretch:normal;font-family:Broadway;-inkscape-font-specification:Broadway;fill:#ffffff;fill-opacity:1;stroke-width:0.241311"
         d="m 12.006315,15.277453 q 0.603277,0.414752 1.300815,0.710106 0.703823,0.28907 1.508192,0.452458 0.194808,0.0377 0.194808,0.188524 0,0.207376 -0.28907,0.207376 -0.659834,0 -1.853819,-0.57814 -0.992893,-0.483878 -2.274855,-1.495623 v 0.257649 l 0.0063,1.068302 v 0.609561 H 6.7716342 V 16.41488 l 0.012568,-2.048626 0.018852,-2.450811 -0.012568,-3.7956153 h 2.5262205 q 1.6967153,0 2.5639253,0.094262 0.867211,0.094262 1.476771,0.3519113 0.992893,0.4147526 1.571033,1.3636564 0.534151,0.8797786 0.534151,1.8475346 0,1.030597 -0.596992,1.941796 -0.961472,1.464203 -2.85928,1.558465 z m -0.596992,-0.389616 0.301638,0.0063 q 1.294531,0 2.186877,-0.722675 0.565572,-0.452458 0.86721,-1.131144 0.282786,-0.622129 0.282786,-1.269394 0,-1.099723 -0.716391,-1.9669333 Q 13.784724,9.1315728 12.961503,8.855071 12.138282,8.5785693 10.642659,8.5597169 l -0.05656,4.2103671 v 1.137428 l 0.0063,0.295354 q 0.383332,0.370764 0.816937,0.684971 z" />
      <path
         inkscape:connector-curvature="0"
         id="path928"
         style="font-style:normal;font-variant:normal;font-weight:normal;font-stretch:normal;font-family:Broadway;-inkscape-font-specification:Broadway;fill:#ffffff;fill-opacity:1;stroke-width:0.241311"
         d="m 20.445902,10.872277 q -0.01257,0.28907 -0.01257,0.703823 v 0.377047 l 0.04399,4.336051 2.13032,-0.02514 1.508192,-0.01885 q 0.370763,0 0.370763,0.226228 0,0.188524 -0.188524,0.213661 -0.04399,0.0063 -0.521582,0.01257 h -7.138773 l 0.0063,-0.326775 0.0063,-2.098899 0.02514,-2.249719 -0.05027,-3.9024453 h 6.661178 q 0.446174,0 0.509015,0.018852 0.144535,0.037705 0.144535,0.2136604 0,0.2199446 -0.276502,0.2199446 h -0.04399 l -3.148349,-0.043989 -0.02514,1.9480803 0.684971,0.0063 2.199445,-0.03771 0.483878,-0.0063 q 0.263934,0 0.345628,0.04399 0.08798,0.04399 0.08798,0.175956 0,0.245081 -0.414752,0.245081 l -0.496447,-0.01257 z" />
      <path
         inkscape:connector-curvature="0"
         id="path930"
         style="font-style:normal;font-variant:normal;font-weight:normal;font-stretch:normal;font-family:Broadway;-inkscape-font-specification:Broadway;fill:#ffffff;fill-opacity:1;stroke-width:0.241311"
         d="m 29.702427,7.604529 5.027304,9.093137 H 30.374829 L 29.777836,15.54767 h -2.111468 l -1.860102,-0.0063 -0.314207,-0.0063 -0.414753,0.766664 q -0.182239,0.345627 -0.257649,0.427321 -0.06912,0.08798 -0.175956,0.08798 -0.21366,0 -0.21366,-0.188524 0,-0.08169 0.119398,-0.301639 0.125683,-0.226228 0.860926,-1.470486 l 3.801899,-6.4035294 z m -1.954365,4.116106 -1.099723,1.853818 -0.879778,1.527044 1.885239,0.02514 1.891523,-0.01885 z" />
      <path
         inkscape:connector-curvature="0"
         id="path932"
         style="font-style:normal;font-variant:normal;font-weight:normal;font-stretch:normal;font-family:Broadway;-inkscape-font-specification:Broadway;fill:#ffffff;fill-opacity:1;stroke-width:0.241311"
         d="m 38.361957,8.2894992 -0.03142,4.4554488 0.03142,3.783047 q 0.326775,0.04399 0.540435,0.04399 0.615845,0 1.263111,-0.219945 0.647265,-0.219945 1.143711,-0.596992 0.320491,-0.245082 0.659834,-0.65355 0.345627,-0.408469 0.553004,-0.798085 0.119398,-0.226228 0.257649,-0.226228 0.207376,0 0.207376,0.175955 0,0.188524 -0.314206,0.640982 -0.307923,0.446173 -0.678686,0.804368 -0.804369,0.772948 -1.891524,1.074587 -0.653549,0.18224 -1.256826,0.18224 -0.879778,0 -1.765841,-0.377048 -1.420213,-0.596993 -2.161741,-1.891524 -0.615844,-1.074586 -0.615844,-2.281139 0,-1.23169 0.640981,-2.325128 0.68497,-1.1625647 1.935512,-1.7784095 0.911199,-0.4398891 1.966933,-0.4398891 1.80983,0 3.129497,1.2254054 0.628413,0.5844242 0.628413,0.8420736 0,0.069125 -0.06284,0.1256826 -0.06284,0.05656 -0.138251,0.05656 -0.125683,0 -0.301638,-0.2450809 Q 41.56058,9.1190045 40.674517,8.6853995 39.788455,8.2455103 38.801846,8.2455103 q -0.232513,0 -0.439889,0.043989 z" />
      <path
         inkscape:connector-curvature="0"
         id="path934"
         style="font-style:normal;font-variant:normal;font-weight:normal;font-stretch:normal;font-family:Broadway;-inkscape-font-specification:Broadway;fill:#ffffff;fill-opacity:1;stroke-width:0.241311"
         d="m 49.472301,8.5408645 -0.03142,1.9669325 -0.01885,1.866387 0.01885,4.323482 h -3.83332 l 0.03771,-5.008452 -0.01885,-1.7029995 -0.01885,-1.44535 -0.829505,0.018852 -1.187701,0.025137 -0.175955,0.00628 q -0.301639,0 -0.301639,-0.2262287 0,-0.2010922 0.175956,-0.2262287 0.05027,-0.012568 0.307922,-0.018852 h 7.710629 q 0.402184,0.00628 0.477594,0.037705 0.125682,0.050273 0.125682,0.2136604 0,0.2136605 -0.32049,0.2136605 l -0.54672,-0.018852 -1.44535,-0.025137 z" />
    </g>
    <g
       style="font-style:normal;font-weight:normal;font-size:8.24516px;line-height:1.25;font-family:sans-serif;fill:#000000;fill-opacity:1;stroke:none;stroke-width:0.257661"
       id="text855-5"
       transform="matrix(0.97383687,0,0,1.026866,-0.13087931,-3.3408691)"
       aria-label="Converter">
      <path
         inkscape:connector-curvature="0"
         id="path907"
         style="font-style:normal;font-variant:normal;font-weight:normal;font-stretch:normal;font-family:Broadway;-inkscape-font-specification:Broadway;fill:#212529;fill-opacity:1;stroke-width:0.257661"
         d="m 8.0271129,19.631942 -0.02013,2.854404 0.02013,2.423626 q 0.2093497,0.02818 0.3462323,0.02818 0.3945438,0 0.8092174,-0.140909 0.4146735,-0.140908 0.7327241,-0.382466 0.2053243,-0.157012 0.4227253,-0.418699 0.221428,-0.261687 0.354284,-0.511297 0.07649,-0.144934 0.165065,-0.144934 0.132856,0 0.132856,0.112727 0,0.120778 -0.201298,0.410647 -0.197271,0.285843 -0.434803,0.515323 -0.5153224,0.495192 -1.211813,0.688438 -0.4186996,0.116753 -0.8051914,0.116753 -0.563634,0 -1.131294,-0.241557 -0.9098663,-0.382466 -1.3849292,-1.211813 -0.3945438,-0.688439 -0.3945438,-1.461423 0,-0.789087 0.4106476,-1.489604 0.4388293,-0.744802 1.2399948,-1.139346 0.5837638,-0.281817 1.2601246,-0.281817 1.1594756,0 2.0049264,0.785062 0.402596,0.374414 0.402596,0.539478 0,0.04429 -0.04026,0.08052 -0.04026,0.03623 -0.08857,0.03623 -0.08052,0 -0.193246,-0.157012 -0.346232,-0.479089 -0.9138919,-0.75688 -0.56766,-0.281817 -1.1997352,-0.281817 -0.1489604,0 -0.281817,0.02818 z" />
      <path
         inkscape:connector-curvature="0"
         id="path909"
         style="font-style:normal;font-variant:normal;font-weight:normal;font-stretch:normal;font-family:Broadway;-inkscape-font-specification:Broadway;fill:#212529;fill-opacity:1;stroke-width:0.257661"
         d="m 13.514493,20.513627 q 0.648179,0 1.227916,0.35831 0.535453,0.330129 0.81727,0.901815 0.249609,0.503244 0.249609,1.066878 0,0.386492 -0.14896,0.77701 -0.144935,0.390518 -0.39857,0.692464 -0.354284,0.414674 -0.865581,0.624024 -0.418699,0.173116 -0.873633,0.173116 -0.760905,0 -1.368825,-0.450907 -0.475063,-0.346233 -0.720646,-0.889737 -0.205324,-0.458959 -0.205324,-0.970255 0,-0.998438 0.724672,-1.658695 0.680387,-0.611945 1.562072,-0.624023 z m -0.116753,0.261687 -0.01208,4.058165 q 0.124805,0.0081 0.173116,0.0081 0.559608,0 1.070905,-0.314025 0.491166,-0.305973 0.73675,-0.813243 0.193246,-0.402596 0.193246,-0.885711 0,-0.970255 -0.716621,-1.574149 -0.579737,-0.487141 -1.260124,-0.487141 -0.05636,0 -0.185194,0.0081 z" />
      <path
         inkscape:connector-curvature="0"
         id="path911"
         style="font-style:normal;font-variant:normal;font-weight:normal;font-stretch:normal;font-family:Broadway;-inkscape-font-specification:Broadway;fill:#212529;fill-opacity:1;stroke-width:0.257661"
         d="m 18.506679,20.622328 v 0.559608 q 0.471037,-0.334155 0.921945,-0.499219 0.450907,-0.16909 0.877658,-0.16909 0.571686,0 0.96623,0.261687 0.297921,0.197272 0.39857,0.491167 0.104674,0.289869 0.104674,0.950126 l -0.0081,1.864018 0.01208,0.938048 H 19.73057 l 0.0161,-1.119216 0.01208,-0.821295 -0.004,-1.239995 q -0.004,-0.430778 -0.01208,-0.511297 -0.004,-0.08454 -0.03623,-0.14896 -0.06442,-0.128831 -0.277791,-0.128831 -0.197272,0 -0.426752,0.112727 -0.229479,0.112727 -0.495193,0.33818 l -0.004,0.165065 -0.0081,1.131294 -0.0081,0.86558 0.01208,1.183632 0.004,0.173116 H 16.44532 L 16.4574,23.440498 16.46948,22.397775 16.4574,21.49596 16.44532,20.622328 Z" />
      <path
         inkscape:connector-curvature="0"
         id="path913"
         style="font-style:normal;font-variant:normal;font-weight:normal;font-stretch:normal;font-family:Broadway;-inkscape-font-specification:Broadway;fill:#212529;fill-opacity:1;stroke-width:0.257661"
         d="m 25.731259,22.977513 q 0.950126,-1.666747 1.147398,-2.161939 0.100649,-0.233506 0.14896,-0.297921 0.05234,-0.06442 0.128831,-0.06442 0.08052,0 0.144934,0.04831 0.06442,0.04429 0.06442,0.100649 0,0.06442 -0.08857,0.213376 l -2.347133,4.215177 -0.124805,0.229479 -1.070905,-1.686876 -0.354284,-0.559608 -0.370388,-0.56766 -0.31805,-0.503244 -0.905841,-1.320514 h 2.504146 l 0.974281,1.614409 z" />
      <path
         inkscape:connector-curvature="0"
         id="path915"
         style="font-style:normal;font-variant:normal;font-weight:normal;font-stretch:normal;font-family:Broadway;-inkscape-font-specification:Broadway;fill:#212529;fill-opacity:1;stroke-width:0.257661"
         d="m 28.98222,22.949331 v 1.248047 q 0,0.362336 0.04429,0.458959 0.08454,0.185194 0.39857,0.185194 0.467011,0 0.921944,-0.253635 0.458959,-0.257662 0.793113,-0.708569 0.108701,-0.14896 0.157013,-0.18922 0.04831,-0.04026 0.104675,-0.04026 0.06844,0 0.112726,0.05234 0.04429,0.04831 0.04429,0.124805 0,0.16909 -0.269739,0.454933 -0.354284,0.366362 -0.881685,0.595841 -0.523374,0.22948 -1.022593,0.22948 -0.857529,0 -1.51376,-0.575712 -0.382466,-0.33818 -0.587789,-0.833373 -0.181168,-0.434803 -0.181168,-0.869607 0,-0.418699 0.161038,-0.837399 0.161038,-0.422725 0.442855,-0.728698 0.326103,-0.35831 0.772984,-0.555582 0.438829,-0.193246 0.917918,-0.193246 0.744802,0 1.348696,0.438829 0.942074,0.684413 0.934022,1.984797 h -0.938048 l -1.207787,0.004 z m 1.030645,-0.265713 v -1.17558 q -0.0081,-0.37844 -0.0161,-0.450907 -0.0081,-0.07649 -0.05636,-0.140908 -0.112727,-0.157013 -0.458959,-0.157013 -0.354284,0 -0.442855,0.181168 -0.05636,0.108701 -0.05636,0.56766 v 1.17558 l 0.491167,0.0161 z" />
      <path
         inkscape:connector-curvature="0"
         id="path917"
         style="font-style:normal;font-variant:normal;font-weight:normal;font-stretch:normal;font-family:Broadway;-inkscape-font-specification:Broadway;fill:#212529;fill-opacity:1;stroke-width:0.257661"
         d="m 34.381028,21.870375 -0.0081,1.545967 0.0161,1.602331 h -2.065316 l 0.004,-0.221428 0.004,-0.821295 0.01208,-1.477526 -0.0161,-1.642591 -0.004,-0.233505 h 2.06129 v 0.829347 q 0.462985,-0.491167 0.644154,-0.619997 0.418699,-0.293895 0.789087,-0.293895 0.225454,0 0.370388,0.09662 0.148961,0.09662 0.148961,0.245583 0,0.116753 -0.08857,0.193246 -0.08857,0.07649 -0.221428,0.07649 -0.08454,0 -0.18922,-0.04831 -0.177142,-0.08455 -0.293895,-0.08455 -0.289869,0 -0.559608,0.197272 -0.269739,0.197271 -0.603894,0.656231 z" />
      <path
         inkscape:connector-curvature="0"
         id="path919"
         style="font-style:normal;font-variant:normal;font-weight:normal;font-stretch:normal;font-family:Broadway;-inkscape-font-specification:Broadway;fill:#212529;fill-opacity:1;stroke-width:0.257661"
         d="m 39.143736,19.205191 -0.04428,1.300384 -0.004,0.124805 q 0.350258,0 0.636101,-0.02818 0.04831,-0.004 0.08454,-0.004 0.177142,0 0.177142,0.161038 0,0.148961 -0.185194,0.148961 -0.05636,0 -0.140909,-0.0081 -0.31805,-0.02416 -0.454933,-0.02416 h -0.116752 l -0.004,0.781036 0.0161,1.566097 0.01208,0.837399 q 0,0.293895 0.04429,0.410648 0.04429,0.116753 0.152986,0.116753 0.144935,0 0.309999,-0.169091 0.161038,-0.16909 0.253635,-0.414673 0.08455,-0.233506 0.201298,-0.233506 0.136883,0 0.136883,0.152987 0,0.152986 -0.136883,0.382466 -0.136883,0.225453 -0.330128,0.394543 -0.475063,0.414674 -1.231943,0.414674 -0.712595,0 -1.103113,-0.430777 -0.201297,-0.217402 -0.277791,-0.483115 -0.07649,-0.269739 -0.07649,-0.744802 v -0.301947 l 0.004,-0.849477 v -1.441293 q -0.05636,-0.004 -0.08052,-0.004 -0.04026,0 -0.161038,0.0081 -0.100649,0.0081 -0.16909,0.0081 -0.197272,0 -0.197272,-0.14896 0,-0.144935 0.18922,-0.144935 0.08857,0 0.124804,0.004 l 0.293895,0.02013 v -0.454933 q 1.191683,-0.430778 2.077394,-0.9461 z" />
      <path
         inkscape:connector-curvature="0"
         id="path921"
         style="font-style:normal;font-variant:normal;font-weight:normal;font-stretch:normal;font-family:Broadway;-inkscape-font-specification:Broadway;fill:#212529;fill-opacity:1;stroke-width:0.257661"
         d="m 42.171256,22.949331 v 1.248047 q 0,0.362336 0.04429,0.458959 0.08455,0.185194 0.39857,0.185194 0.467011,0 0.921944,-0.253635 0.458959,-0.257662 0.793114,-0.708569 0.108701,-0.14896 0.157012,-0.18922 0.04831,-0.04026 0.104675,-0.04026 0.06844,0 0.112727,0.05234 0.04428,0.04831 0.04428,0.124805 0,0.16909 -0.269739,0.454933 -0.354284,0.366362 -0.881684,0.595841 -0.523375,0.22948 -1.022593,0.22948 -0.857529,0 -1.51376,-0.575712 -0.382466,-0.33818 -0.58779,-0.833373 -0.181168,-0.434803 -0.181168,-0.869607 0,-0.418699 0.161038,-0.837399 0.161038,-0.422725 0.442855,-0.728698 0.326103,-0.35831 0.772984,-0.555582 0.43883,-0.193246 0.917918,-0.193246 0.744803,0 1.348696,0.438829 0.942074,0.684413 0.934022,1.984797 h -0.938048 l -1.207787,0.004 z m 1.030645,-0.265713 v -1.17558 q -0.0081,-0.37844 -0.0161,-0.450907 -0.0081,-0.07649 -0.05636,-0.140908 -0.112727,-0.157013 -0.458959,-0.157013 -0.354285,0 -0.442856,0.181168 -0.05636,0.108701 -0.05636,0.56766 v 1.17558 l 0.491167,0.0161 z" />
      <path
         inkscape:connector-curvature="0"
         id="path923"
         style="font-style:normal;font-variant:normal;font-weight:normal;font-stretch:normal;font-family:Broadway;-inkscape-font-specification:Broadway;fill:#212529;fill-opacity:1;stroke-width:0.257661"
         d="m 47.570062,21.870375 -0.0081,1.545967 0.0161,1.602331 h -2.065316 l 0.004,-0.221428 0.004,-0.821295 0.01208,-1.477526 -0.0161,-1.642591 -0.004,-0.233505 h 2.06129 v 0.829347 q 0.462985,-0.491167 0.644153,-0.619997 0.4187,-0.293895 0.789088,-0.293895 0.225453,0 0.370388,0.09662 0.14896,0.09662 0.14896,0.245583 0,0.116753 -0.08857,0.193246 -0.08857,0.07649 -0.221428,0.07649 -0.08454,0 -0.18922,-0.04831 -0.177142,-0.08455 -0.293894,-0.08455 -0.289869,0 -0.559608,0.197272 -0.26974,0.197271 -0.603894,0.656231 z" />
    </g>
  </g>
</svg>
